<?xml version="1.0" standalone="no"?>
<!DOCTYPE svg PUBLIC "-//W3C//DTD SVG 20010904//EN"
 "http://www.w3.org/TR/2001/REC-SVG-20010904/DTD/svg10.dtd">
<svg version="1.0" xmlns="http://www.w3.org/2000/svg"
 width="192.000000pt" height="192.000000pt" viewBox="0 0 192.000000 192.000000"
 preserveAspectRatio="xMidYMid meet">
<metadata>
Created by potrace 1.14, written by Peter Selinger 2001-2017
</metadata>
<g transform="translate(0.000000,192.000000) scale(0.100000,-0.100000)"
fill="#000000" stroke="none">
<path d="M913 1906 c-4 -5 -1 -12 5 -14 13 -4 5 -32 -10 -32 -5 0 -6 6 -2 13
4 6 3 8 -1 4 -11 -9 -16 -37 -7 -34 4 1 9 -2 12 -8 3 -5 -2 -10 -10 -10 -8 0
-16 -4 -17 -10 -1 -5 6 -8 15 -7 12 3 14 0 7 -7 -6 -6 -23 -12 -37 -13 -15 -1
-25 -5 -22 -9 2 -4 -1 -11 -7 -15 -8 -4 -7 -9 2 -15 12 -7 12 -10 0 -21 -10
-9 -12 -10 -7 -1 5 9 2 11 -10 6 -14 -5 -13 -8 7 -19 13 -7 19 -13 12 -14 -7
0 -10 -7 -7 -17 5 -15 4 -15 -4 -3 -6 8 -8 19 -4 25 3 5 -8 -1 -25 -15 -17
-14 -29 -28 -27 -32 3 -4 0 -10 -6 -13 -8 -5 -7 -11 1 -21 6 -8 8 -14 3 -14
-5 0 -3 -4 5 -9 11 -7 9 -10 -8 -16 -12 -3 -21 -15 -21 -26 0 -10 -4 -19 -10
-19 -5 0 -7 8 -4 18 4 10 3 13 -3 6 -4 -6 -17 -16 -28 -23 -20 -12 -20 -12 0
-6 15 4 21 0 21 -13 0 -10 -6 -19 -13 -19 -7 0 -10 4 -7 9 9 15 -3 8 -17 -9
-10 -11 -10 -14 -1 -9 6 4 12 2 12 -4 0 -6 -7 -13 -15 -16 -8 -4 -12 -11 -9
-16 4 -6 10 -5 15 3 6 10 8 8 6 -8 -4 -30 -15 -39 -23 -19 -3 9 -10 16 -16 16
-5 0 -7 -4 -4 -9 3 -5 -1 -14 -9 -21 -12 -10 -12 -17 -3 -34 10 -20 10 -20 -7
-6 -17 14 -18 14 -5 -10 7 -14 9 -22 5 -18 -4 4 -14 0 -22 -10 -8 -9 -12 -12
-10 -7 3 6 -2 17 -11 25 -14 13 -15 12 -9 -3 7 -20 3 -21 -23 -7 -15 8 -18 7
-14 -3 3 -10 -9 -13 -53 -12 -45 1 -57 5 -55 16 3 11 1 11 -9 2 -6 -6 -19 -9
-28 -6 -13 4 -14 3 -1 -5 8 -6 18 -8 24 -5 5 3 6 1 3 -4 -9 -14 -59 -4 -76 16
-12 14 -12 14 -7 -5 4 -13 2 -21 -6 -21 -7 0 -20 -2 -28 -4 -8 -2 -14 2 -12 9
1 8 -2 11 -7 8 -5 -4 -12 0 -14 6 -4 9 -6 8 -6 -2 -1 -9 4 -21 10 -27 7 -7 6
-12 -5 -16 -10 -4 -13 -1 -9 9 3 7 1 14 -5 14 -6 0 -12 -5 -14 -12 -2 -6 -28
-13 -56 -14 -29 -2 -50 1 -47 5 3 5 16 8 29 7 18 -2 23 1 19 13 -4 11 -1 10
11 -4 17 -20 17 -20 6 3 -8 16 -15 20 -23 13 -7 -5 -15 -10 -19 -11 -4 0 -22
-7 -40 -14 -18 -8 -51 -13 -73 -11 -34 3 -36 2 -16 -6 13 -5 22 -12 19 -15
-10 -9 -49 -13 -43 -4 3 5 2 11 -3 14 -4 2 -9 -9 -10 -25 -2 -26 5 -33 26 -27
4 2 6 7 4 11 -1 5 2 6 7 2 6 -3 7 -13 4 -22 -4 -9 -2 -14 3 -10 23 14 33 -9
18 -38 -9 -19 -10 -25 -3 -17 18 17 34 15 19 -3 -11 -13 -10 -14 4 -9 9 3 16
11 16 18 0 6 5 3 11 -7 6 -9 15 -14 21 -11 6 4 8 3 5 -3 -9 -14 12 -39 48 -58
18 -9 23 -15 13 -15 -9 0 -20 -5 -24 -12 -5 -7 -2 -9 9 -5 25 9 41 -18 22 -37
-25 -24 -5 -19 24 7 14 12 20 15 14 7 -13 -18 -13 -60 0 -60 4 0 5 -6 1 -12
-5 -9 -2 -9 9 1 18 14 23 26 8 17 -5 -3 -11 1 -15 9 -3 8 0 17 7 21 7 4 9 4 5
-1 -4 -4 3 -16 15 -27 12 -11 16 -17 10 -13 -8 4 -13 0 -13 -10 0 -9 4 -13 10
-10 5 3 10 1 10 -5 0 -6 4 -8 10 -5 5 3 10 -1 10 -10 0 -13 -4 -14 -23 -5 -20
10 -21 10 -4 -4 11 -8 26 -12 35 -8 15 5 15 3 4 -10 -10 -13 -10 -18 -1 -24 8
-4 9 -3 5 4 -4 7 -3 12 2 12 6 0 13 -8 16 -17 6 -15 8 -15 17 -3 9 13 10 13 6
0 -2 -8 -11 -14 -20 -14 -9 1 -14 -3 -11 -8 3 -5 12 -7 20 -4 8 3 14 1 14 -4
0 -6 9 -10 21 -10 16 0 19 -4 13 -22 -3 -13 -3 -20 1 -16 14 13 33 -12 27 -34
-4 -16 -1 -20 9 -16 23 9 21 -30 -2 -42 -23 -13 -25 -30 -3 -30 11 0 14 -5 10
-16 -4 -9 -1 -23 6 -32 12 -13 11 -14 -9 -2 -16 11 -19 17 -11 27 7 9 7 13 -1
13 -6 0 -11 -5 -11 -11 0 -5 -4 -8 -9 -4 -5 3 -13 0 -17 -6 -4 -8 -3 -9 4 -5
7 4 12 3 12 -3 0 -5 -6 -12 -12 -15 -7 -3 -2 -3 11 0 16 4 21 3 17 -5 -4 -6
-1 -11 6 -11 9 0 9 -3 2 -8 -6 -4 -10 -17 -9 -29 1 -12 -2 -20 -6 -17 -4 2 -9
-2 -12 -8 -3 -7 -4 -2 -3 12 1 14 5 31 9 36 3 6 0 11 -8 11 -8 0 -13 -3 -10
-5 3 -3 0 -11 -6 -18 -7 -9 -7 -19 0 -32 6 -11 7 -22 4 -26 -4 -3 -7 -21 -8
-39 0 -17 -5 -38 -9 -46 -6 -10 -5 -12 2 -7 12 7 16 -4 12 -38 -1 -10 4 -22
10 -26 8 -5 7 -9 -5 -13 -10 -5 -14 -3 -9 5 4 7 3 8 -4 4 -6 -4 -9 -13 -6 -21
4 -8 10 -13 14 -10 5 3 12 0 16 -6 4 -8 3 -9 -4 -5 -7 4 -12 2 -12 -4 0 -6 -4
-8 -10 -5 -6 3 -7 -1 -4 -9 4 -10 1 -16 -7 -16 -7 0 -9 -3 -6 -6 4 -4 12 -2
20 4 10 8 13 6 13 -8 0 -10 -3 -17 -7 -14 -18 10 -14 -23 4 -39 11 -9 16 -17
11 -17 -6 0 -16 6 -23 12 -10 11 -12 10 -9 -2 2 -8 10 -21 18 -28 13 -11 11
-12 -10 -7 -22 5 -23 4 -7 -5 15 -10 16 -14 5 -28 -10 -12 -10 -14 0 -8 7 4
12 2 12 -6 0 -9 3 -9 10 2 9 14 15 6 10 -15 -1 -5 7 -2 18 8 22 20 37 23 26 5
-6 -10 -5 -10 8 -1 8 7 19 9 23 5 5 -4 5 -2 2 4 -4 7 0 15 9 18 11 4 13 13 9
28 -7 22 -6 22 7 4 12 -15 17 -16 23 -6 5 9 4 11 -3 6 -8 -5 -10 -1 -5 10 5
14 8 13 19 -7 7 -13 13 -18 14 -10 0 8 7 11 20 8 11 -3 23 0 27 5 3 6 2 8 -3
5 -6 -3 -16 -2 -24 3 -11 7 -8 9 10 8 14 -1 29 -7 33 -13 5 -5 7 2 4 17 -3 18
2 32 12 40 14 11 14 11 4 -2 -8 -10 -9 -21 -3 -30 8 -13 10 -12 10 2 0 24 18
32 36 17 13 -11 18 -10 26 4 5 10 14 14 20 11 8 -5 9 -1 4 11 -5 15 -4 16 9 5
8 -7 12 -17 8 -23 -3 -6 -1 -7 5 -3 9 5 9 13 2 27 -6 10 -7 19 -2 19 5 0 13
-10 19 -22 8 -19 10 -20 16 -4 4 10 3 15 -3 11 -6 -3 -10 -1 -10 4 0 9 26 16
51 13 3 -1 5 10 3 24 -1 13 2 22 7 18 5 -3 7 -9 4 -14 -3 -4 1 -10 9 -13 8 -3
13 1 12 10 0 9 6 18 14 20 12 4 12 3 1 -5 -8 -6 -9 -12 -3 -16 6 -3 20 9 31
27 16 23 21 26 19 12 -2 -15 4 -21 22 -24 14 -1 28 -8 32 -15 6 -8 8 -8 8 2 0
6 5 12 11 12 5 0 8 -4 5 -8 -3 -5 7 -8 22 -7 15 1 32 -1 37 -5 16 -10 35 -6
44 9 6 9 11 10 15 2 4 -6 3 -11 -3 -11 -5 0 -9 -8 -8 -19 0 -11 8 -18 17 -16
8 1 14 11 13 21 -1 18 -1 18 11 2 7 -10 17 -14 21 -10 5 4 5 1 1 -6 -4 -7 -13
-9 -19 -5 -7 4 -5 -2 3 -13 22 -29 24 -30 17 -11 -4 9 -2 17 3 17 6 0 10 -3
10 -8 0 -4 10 -13 23 -21 21 -13 21 -13 5 5 -16 19 -16 20 2 20 10 0 16 -4 14
-8 -3 -4 0 -8 6 -8 6 0 8 -6 5 -12 -4 -7 2 -3 12 8 18 21 20 21 30 4 9 -13 8
-21 -4 -32 -12 -12 -12 -17 -2 -23 7 -5 10 -4 6 2 -4 6 2 13 14 16 15 4 18 2
10 -7 -8 -9 -6 -12 7 -11 9 0 23 4 29 8 6 4 15 2 19 -4 5 -8 3 -9 -7 -4 -12 7
-12 6 -1 -7 8 -11 23 -15 42 -12 15 3 31 0 35 -6 5 -8 12 -7 23 1 13 10 13 9
-1 -7 -15 -16 -19 -17 -27 -4 -8 13 -11 13 -22 1 -7 -8 -8 -11 -3 -8 6 3 19
-1 30 -9 10 -8 13 -14 7 -14 -7 0 -12 -5 -12 -11 0 -8 5 -8 15 1 8 7 13 16 10
20 -3 4 2 10 10 14 8 3 17 0 21 -6 4 -7 3 -8 -4 -4 -7 4 -12 2 -12 -3 0 -6 7
-11 16 -11 9 0 12 -5 8 -12 -4 -7 -3 -8 5 -4 6 4 8 12 5 18 -5 7 -1 9 9 5 9
-3 19 -1 23 5 4 7 3 8 -4 4 -7 -4 -12 -4 -12 -1 0 11 23 50 34 57 8 6 7 8 -1
8 -6 0 -15 -4 -18 -10 -3 -5 -12 -10 -18 -10 -8 0 -9 2 -1 8 16 10 36 52 25
52 -5 0 -12 7 -15 16 -5 13 -3 14 7 6 19 -16 17 29 -3 53 -11 14 -12 17 -1 11
9 -6 12 -5 9 5 -3 8 -11 13 -17 11 -7 -1 -10 2 -6 8 3 6 9 8 13 6 4 -2 7 27 7
64 0 38 -2 67 -5 65 -3 -2 -12 0 -20 6 -12 7 -10 9 8 9 12 0 22 4 22 9 0 5 -8
8 -17 7 -12 -1 -17 5 -15 18 2 10 -1 15 -7 12 -6 -4 -8 2 -6 14 2 11 -4 27
-13 37 -16 16 -16 16 1 10 9 -3 18 -3 18 1 6 32 5 53 -3 58 -4 3 -6 9 -4 13 3
4 -1 8 -9 8 -11 0 -12 -4 -4 -14 8 -9 8 -13 0 -13 -12 0 -12 -1 -15 53 -1 21
3 41 8 44 5 3 6 1 3 -4 -4 -6 0 -14 9 -17 8 -3 13 -2 10 3 -3 4 3 16 14 26 22
20 26 35 9 35 -5 0 -8 -4 -5 -9 10 -15 -18 -31 -34 -20 -12 8 -11 9 5 7 12 -2
20 3 20 12 0 9 10 15 28 16 26 1 53 14 29 14 -17 0 -15 35 3 50 8 6 19 9 24 5
6 -3 18 -2 27 3 15 8 15 10 0 15 -11 5 -15 3 -10 -5 4 -7 3 -8 -5 -4 -14 9 -4
29 12 23 17 -6 47 22 40 39 -3 8 2 17 11 20 9 3 16 10 16 16 0 5 -5 6 -12 2
-7 -4 -8 -3 -4 4 4 7 14 12 22 12 9 0 12 -5 8 -12 -4 -7 -3 -8 5 -4 6 4 9 12
6 17 -4 5 0 9 8 9 8 0 21 8 28 17 12 14 12 16 0 9 -9 -6 -12 -5 -9 5 3 8 11
13 18 11 11 -3 11 0 1 12 -10 12 -8 17 11 26 21 10 21 10 5 -3 -15 -13 -15
-15 -2 -20 8 -4 14 -1 12 6 -1 7 3 11 9 10 5 -1 9 11 8 26 -2 24 2 28 22 25
13 -1 22 2 18 7 -3 5 -9 7 -14 4 -5 -3 -12 0 -16 7 -4 7 -4 10 1 6 4 -4 15 -2
23 5 10 8 13 8 9 1 -4 -7 0 -14 8 -18 8 -3 17 0 21 6 5 7 2 8 -6 3 -9 -6 -10
-2 -5 15 5 15 2 26 -6 32 -11 6 -9 8 6 6 11 -2 19 2 18 9 -3 14 28 6 38 -10 4
-5 6 7 6 27 -1 31 -4 35 -20 30 -14 -4 -17 -3 -12 6 5 9 4 11 -3 6 -7 -4 -12
-3 -12 3 0 12 -32 2 -42 -13 -8 -12 -38 10 -38 28 0 6 7 2 15 -8 8 -11 15 -18
16 -15 6 34 7 52 3 42 -3 -7 -10 -13 -15 -13 -6 0 -7 5 -4 10 4 6 1 9 -7 8 -7
-2 -12 3 -10 10 1 8 -2 11 -8 7 -8 -5 -7 -11 1 -21 18 -22 -2 -16 -28 8 -13
12 -23 17 -23 12 0 -5 9 -16 21 -24 11 -8 25 -24 30 -35 9 -18 9 -19 -4 -3 -8
10 -17 15 -20 11 -4 -3 -7 -1 -7 6 0 7 -5 9 -12 5 -6 -4 -8 -3 -5 3 4 6 -3 13
-14 16 -12 3 -18 10 -14 16 3 6 1 11 -4 11 -6 0 -11 -4 -11 -9 0 -10 -55 -9
-66 1 -3 4 -19 2 -36 -4 -24 -8 -32 -8 -39 3 -8 13 -13 5 -10 -14 1 -5 -3 -6
-9 -2 -6 3 -8 10 -5 15 3 5 1 11 -4 14 -5 4 -13 1 -17 -5 -5 -8 -3 -9 7 -4 12
8 12 6 0 -8 -12 -15 -31 -15 -31 -1 0 3 6 2 13 -2 9 -6 9 -5 0 8 -7 8 -9 19
-5 23 4 5 1 5 -6 1 -7 -4 -10 -11 -7 -16 3 -4 -2 -14 -11 -21 -8 -7 -14 -8
-13 -3 5 29 -2 37 -17 18 -8 -10 -13 -13 -9 -6 4 7 0 12 -10 12 -10 0 -13 -5
-9 -12 5 -8 1 -7 -10 2 -22 17 -46 22 -46 8 0 -6 7 -7 16 -4 8 3 13 2 10 -3
-3 -5 -23 -8 -43 -6 -28 2 -38 7 -37 19 2 19 -12 22 -18 4 -3 -7 -7 -5 -11 6
-4 9 -3 15 2 11 5 -3 12 -1 16 5 3 5 1 10 -4 10 -6 0 -11 5 -11 11 0 5 6 7 13
4 6 -4 0 4 -16 17 -22 20 -25 26 -15 38 11 12 10 12 -4 1 -16 -12 -16 -15 -1
-37 9 -14 13 -27 9 -31 -3 -3 -6 -1 -6 6 0 7 -5 9 -12 5 -6 -4 -8 -3 -4 4 3 6
0 17 -7 24 -12 11 -12 16 0 26 16 15 7 36 -12 28 -9 -3 -11 4 -5 28 6 27 4 33
-9 32 -9 0 -15 5 -13 12 1 8 -2 11 -8 7 -8 -5 -6 -13 6 -26 9 -11 14 -22 11
-26 -4 -3 -7 -1 -7 6 0 7 -5 9 -12 5 -7 -4 -10 -4 -6 1 9 9 -11 37 -21 30 -4
-2 -8 2 -8 10 0 8 4 12 8 9 4 -2 10 0 14 6 3 5 -2 10 -12 10 -17 1 -17 2 1 15
12 9 15 15 7 15 -7 0 -11 6 -8 15 8 19 -48 61 -59 44 -4 -8 -3 -9 4 -5 8 5 10
1 5 -9 -4 -12 -8 -13 -13 -5 -9 15 -1 52 14 63 7 6 5 7 -6 4 -9 -3 -22 1 -30
10 -11 14 -10 15 12 9 17 -5 20 -4 12 2 -8 5 -13 13 -12 18 1 5 -4 10 -12 12
-10 3 -10 2 1 -6 10 -7 6 -9 -14 -9 -15 0 -23 2 -17 6 5 3 10 19 10 35 0 17
-3 23 -8 15 -5 -6 -6 -19 -2 -28 6 -17 4 -16 -18 13 -10 13 -10 17 -2 12 6 -4
12 -3 12 2 0 6 -7 12 -15 16 -9 3 -12 12 -8 23 3 10 3 15 -2 11 -4 -4 -16 -3
-27 3 -13 7 -23 7 -31 0 -9 -7 -13 -5 -13 8 0 22 43 22 56 1 6 -8 10 -11 10
-6 0 5 7 3 15 -4 13 -11 14 -10 9 4 -3 9 -12 16 -20 16 -8 0 -14 5 -14 11 0 5
6 7 13 3 6 -4 9 -3 4 1 -11 12 -87 13 -94 1z m-39 -147 c-3 -5 -10 -7 -15 -3
-5 3 -7 10 -3 15 3 5 10 7 15 3 5 -3 7 -10 3 -15z m-58 -86 c-2 -9 -8 -19 -14
-21 -6 -2 -10 -9 -8 -15 1 -7 1 -9 -1 -4 -3 4 -10 4 -16 0 -6 -4 -1 8 12 25
25 36 30 39 27 15z m322 -40 c-8 -10 -7 -13 2 -13 8 0 10 -3 7 -6 -10 -11 -36
16 -34 35 1 15 4 17 19 8 12 -8 14 -15 6 -24z m87 -163 c-3 -5 -12 -10 -18
-10 -7 0 -6 4 3 10 19 12 23 12 15 0z m-558 -69 c-1 -15 -4 -17 -14 -9 -7 5
-10 14 -7 19 10 16 23 9 21 -10z m976 -74 c4 3 7 1 7 -5 0 -17 -16 -15 -31 6
-12 15 -12 16 2 5 9 -7 19 -10 22 -6z m49 -6 c3 8 7 7 16 -3 10 -12 8 -14 -11
-12 -12 1 -25 3 -29 3 -5 1 -8 6 -8 12 0 8 4 8 14 0 11 -9 15 -9 18 0z m-1598
-39 c3 -5 -1 -9 -9 -9 -8 0 -12 4 -9 9 3 4 7 8 9 8 2 0 6 -4 9 -8z m40 0 c3
-5 -1 -9 -9 -9 -8 0 -15 4 -15 9 0 4 4 8 9 8 6 0 12 -4 15 -8z m1736 -11 c0
-5 -7 -12 -16 -15 -14 -5 -15 -4 -4 9 14 17 20 19 20 6z m-140 -236 c0 -1 -12
-2 -26 -2 -17 0 -22 2 -13 7 10 7 39 3 39 -5z m-80 -89 c0 -2 -6 -9 -14 -15
-11 -9 -16 -9 -22 0 -4 7 -3 9 4 5 6 -3 13 -2 17 4 6 10 15 14 15 6z m-109
-113 c13 -16 12 -17 -3 -4 -17 13 -22 21 -14 21 2 0 10 -8 17 -17z m-44 -183
c1 -11 -2 -20 -7 -20 -6 0 -7 17 -1 38 3 8 7 -1 8 -18z m-1096 -153 c-10 -9
-11 -8 -5 6 3 10 9 15 12 12 3 -3 0 -11 -7 -18z m14 -17 c-3 -5 -12 -10 -18
-10 -7 0 -6 4 3 10 19 12 23 12 15 0z m1112 -30 c1 -11 -1 -22 -5 -24 -4 -2
-8 7 -8 20 -1 13 1 24 5 24 4 0 7 -9 8 -20z m-1118 -3 c8 -10 7 -14 -2 -14 -8
0 -14 6 -14 14 0 7 1 13 2 13 2 0 8 -6 14 -13z m569 -87 c-7 -11 -19 -20 -27
-20 -8 0 -4 8 10 20 30 25 32 25 17 0z m30 -2 c-2 -7 2 -12 8 -11 6 1 11 -5
11 -12 0 -11 -4 -12 -13 -4 -7 6 -18 8 -25 4 -8 -6 -8 -2 0 14 13 23 22 28 19
9z m92 -42 c0 -10 -30 0 -34 11 -4 11 -1 11 14 3 11 -6 20 -12 20 -14z m-285
-6 c-3 -5 -12 -10 -18 -10 -7 0 -6 4 3 10 19 12 23 12 15 0z m725 -12 c0 -6
-6 -5 -15 2 -8 7 -15 14 -15 16 0 2 7 1 15 -2 8 -4 15 -11 15 -16z m-830 -43
c0 -12 -19 -12 -23 0 -4 9 -1 12 9 8 7 -3 14 -7 14 -8z m683 -58 c3 -8 -1 -14
-8 -14 -7 0 -11 6 -8 14 6 16 10 16 16 0z m37 3 c0 -5 -5 -10 -11 -10 -5 0 -7
5 -4 10 3 6 8 10 11 10 2 0 4 -4 4 -10z m-931 -33 c-2 -1 -12 -9 -22 -16 -15
-12 -17 -12 -11 3 3 9 13 16 22 16 8 0 13 -1 11 -3z"/>
<path d="M748 1613 c7 -3 16 -2 19 1 4 3 -2 6 -13 5 -11 0 -14 -3 -6 -6z"/>
<path d="M486 1349 c2 -4 13 -7 24 -6 23 2 17 10 -10 12 -10 1 -17 -2 -14 -6z"/>
<path d="M215 1340 c3 -5 8 -10 11 -10 2 0 4 5 4 10 0 6 -5 10 -11 10 -5 0 -7
-4 -4 -10z"/>
<path d="M238 1329 c-9 -9 -14 -20 -11 -23 4 -3 13 3 21 15 18 26 12 31 -10 8z"/>
<path d="M307 1336 c-4 -10 -1 -13 9 -9 7 3 14 9 14 14 0 14 -17 10 -23 -5z"/>
<path d="M96 1322 c-3 -5 1 -9 9 -9 8 0 12 4 9 9 -3 4 -7 8 -9 8 -2 0 -6 -4
-9 -8z"/>
<path d="M1875 1209 c-11 -16 -1 -19 13 -3 7 8 8 14 3 14 -5 0 -13 -5 -16 -11z"/>
<path d="M45 1200 c-3 -5 -1 -10 4 -10 6 0 11 5 11 10 0 6 -2 10 -4 10 -3 0
-8 -4 -11 -10z"/>
<path d="M96 1141 c-5 -7 -2 -10 6 -9 7 2 12 -5 12 -15 -1 -10 0 -16 3 -13 7
7 43 -26 37 -36 -3 -4 2 -5 12 -1 15 5 14 8 -4 22 -11 9 -29 27 -40 40 -13 17
-21 21 -26 12z"/>
<path d="M1806 1118 c3 -5 10 -6 15 -3 13 9 11 12 -6 12 -8 0 -12 -4 -9 -9z"/>
<path d="M185 1040 c-3 -5 1 -10 10 -10 9 0 13 5 10 10 -3 6 -8 10 -10 10 -2
0 -7 -4 -10 -10z"/>
<path d="M1666 958 c3 -5 10 -6 15 -3 13 9 11 12 -6 12 -8 0 -12 -4 -9 -9z"/>
<path d="M1565 870 c-3 -5 1 -10 10 -10 9 0 13 5 10 10 -3 6 -8 10 -10 10 -2
0 -7 -4 -10 -10z"/>
<path d="M1586 838 c3 -5 10 -6 15 -3 13 9 11 12 -6 12 -8 0 -12 -4 -9 -9z"/>
<path d="M415 780 c6 -10 4 -12 -11 -6 -15 6 -17 5 -6 -5 9 -9 15 -10 23 -2 8
8 7 13 -2 18 -8 6 -10 4 -4 -5z"/>
<path d="M416 721 c9 -9 34 -9 34 -1 0 5 -9 8 -20 7 -10 -1 -17 -3 -14 -6z"/>
<path d="M1475 720 c3 -5 11 -10 16 -10 6 0 7 5 4 10 -3 6 -11 10 -16 10 -6 0
-7 -4 -4 -10z"/>
<path d="M1509 617 c-8 -14 -3 -50 8 -54 11 -4 11 -8 1 -21 -12 -14 -11 -14 9
-1 l23 14 -22 11 c-16 8 -18 13 -7 17 10 4 10 6 2 6 -7 1 -13 5 -13 11 0 5 7
7 15 4 8 -4 15 -4 15 -1 0 5 -29 18 -31 14z"/>
<path d="M1267 236 c-4 -10 -1 -13 8 -9 8 3 12 9 9 14 -7 12 -11 11 -17 -5z"/>
<path d="M1545 160 c3 -5 8 -10 11 -10 2 0 4 5 4 10 0 6 -5 10 -11 10 -5 0 -7
-4 -4 -10z"/>
</g>
</svg>
